<?xml version="1.0" encoding="UTF-8" standalone="no"?>
<!DOCTYPE svg PUBLIC "-//W3C//DTD SVG 20010904//EN"
              "http://www.w3.org/TR/2001/REC-SVG-20010904/DTD/svg10.dtd">

<svg xmlns="http://www.w3.org/2000/svg"
     width="7.95in" height="6.83in"
     viewBox="0 0 795 683">
  <path id="Selection"
        fill="#2a5282" stroke="black" stroke-width="1"
        d="M 251.00,1.21
           C 251.00,1.21 274.00,3.58 274.00,3.58
             303.07,8.09 327.10,16.27 353.00,30.31
             365.84,37.27 380.93,47.79 392.00,57.28
             395.61,60.39 406.63,70.97 410.00,72.26
             412.11,73.07 414.76,72.99 417.00,73.00
             417.00,73.00 439.00,73.00 439.00,73.00
             451.80,73.02 478.93,77.19 492.00,79.80
             496.47,80.69 512.86,85.14 516.00,84.17
             520.04,82.93 530.46,71.54 534.00,68.00
             534.00,68.00 575.00,27.79 575.00,27.79
             585.66,20.16 599.00,19.91 604.03,34.00
             605.15,37.13 604.99,39.75 605.00,43.00
             605.00,43.00 605.00,117.00 605.00,117.00
             605.02,119.38 604.90,121.81 606.02,123.99
             607.74,127.33 612.00,129.96 615.00,132.15
             615.00,132.15 633.00,146.08 633.00,146.08
             659.08,167.77 681.88,193.44 698.72,223.00
             698.72,223.00 709.75,244.00 709.75,244.00
             711.28,247.04 713.03,251.28 716.10,252.98
             718.30,254.20 721.53,254.00 724.00,254.00
             724.00,254.00 754.00,254.00 754.00,254.00
             770.56,254.00 786.72,253.61 792.78,273.00
             794.05,277.08 793.99,279.83 794.00,284.00
             794.00,284.00 794.00,418.00 794.00,418.00
             793.97,435.94 784.32,446.97 766.00,447.00
             766.00,447.00 723.00,447.00 723.00,447.00
             720.25,447.04 717.55,447.01 715.22,448.74
             712.61,450.68 711.16,455.06 709.74,458.00
             709.74,458.00 698.70,479.00 698.70,479.00
             684.10,505.53 660.96,532.02 638.00,551.57
             638.00,551.57 619.00,566.63 619.00,566.63
             616.16,568.75 610.79,572.12 609.17,575.09
             607.79,577.64 608.00,581.16 608.00,584.00
             608.00,584.00 608.00,651.00 608.00,651.00
             607.91,669.39 599.53,681.97 580.00,682.00
             580.00,682.00 498.00,682.00 498.00,682.00
             479.48,681.97 470.03,671.17 470.00,653.00
             470.00,653.00 470.00,637.00 470.00,637.00
             469.99,633.67 470.45,628.91 466.85,627.19
             466.85,627.19 444.00,628.00 444.00,628.00
             444.00,628.00 429.00,629.00 429.00,629.00
             429.00,629.00 413.00,629.00 413.00,629.00
             413.00,629.00 395.00,628.00 395.00,628.00
             391.05,627.95 377.69,625.81 375.15,627.11
             370.40,629.53 372.01,644.98 372.00,650.00
             371.97,668.65 364.21,681.97 344.00,682.00
             344.00,682.00 262.00,682.00 262.00,682.00
             244.35,681.97 234.03,671.70 234.00,654.00
             234.00,654.00 234.00,583.00 234.00,583.00
             233.99,580.40 234.19,577.38 232.98,575.01
             230.90,570.97 216.57,561.32 212.00,557.58
             192.82,541.86 174.94,524.20 160.43,504.00
             152.04,492.32 144.76,480.62 137.86,468.00
             134.68,462.18 132.24,453.84 127.79,449.10
             124.74,445.86 118.95,443.02 115.00,440.58
             115.00,440.58 93.00,425.63 93.00,425.63
             75.52,412.43 57.18,392.84 44.43,375.00
             -10.39,298.30 -13.31,195.51 35.00,115.00
             52.61,85.65 74.25,63.11 102.00,43.15
             126.56,25.49 160.31,11.42 190.00,5.45
             190.00,5.45 219.00,1.21 219.00,1.21
             219.00,1.21 251.00,1.21 251.00,1.21 Z
           M 173.00,30.75
           C 112.59,50.11 61.37,95.95 37.45,155.00
             6.40,231.65 20.36,320.21 76.17,382.00
             96.36,404.35 118.03,420.21 145.00,433.26
             162.98,441.96 182.20,448.35 202.00,451.27
             202.00,451.27 219.00,453.96 219.00,453.96
             219.00,453.96 228.00,453.96 228.00,453.96
             228.00,453.96 239.00,454.98 239.00,454.98
             239.00,454.98 248.00,453.90 248.00,453.90
             248.00,453.90 258.00,453.90 258.00,453.90
             295.08,449.27 327.80,438.41 359.00,417.48
             437.93,364.53 473.67,263.55 444.97,173.00
             434.54,140.07 415.94,109.78 391.96,85.00
             391.96,85.00 382.00,75.92 382.00,75.92
             363.35,58.76 339.70,44.53 316.00,35.58
             295.37,27.79 268.11,21.10 246.00,21.14
             246.00,21.14 223.00,21.14 223.00,21.14
             206.04,23.72 189.47,25.47 173.00,30.75 Z
           M 171.59,484.00
           C 171.59,484.00 197.09,515.99 197.09,515.99
             197.09,515.99 222.00,539.20 222.00,539.20
             222.00,539.20 240.00,553.08 240.00,553.08
             249.69,560.12 253.98,559.80 254.00,573.00
             254.00,573.00 254.00,649.00 254.00,649.00
             254.02,659.47 256.53,661.98 267.00,662.00
             267.00,662.00 338.00,662.00 338.00,662.00
             348.47,661.98 350.98,659.47 351.00,649.00
             351.00,649.00 351.00,619.00 351.00,619.00
             351.06,614.41 351.51,609.68 355.22,606.43
             359.53,602.66 365.89,604.30 371.00,605.00
             382.40,606.56 393.49,607.95 405.00,608.00
             405.00,608.00 423.00,609.00 423.00,609.00
             423.00,609.00 443.00,608.00 443.00,608.00
             451.19,607.99 459.87,606.70 468.00,605.58
             471.53,605.09 478.85,603.61 482.00,604.43
             489.46,606.39 489.99,612.62 490.00,619.00
             490.00,619.00 490.00,650.00 490.00,650.00
             490.05,653.38 490.18,656.95 492.65,659.57
             495.33,662.40 499.44,661.99 503.00,662.00
             503.00,662.00 574.00,662.00 574.00,662.00
             584.47,661.98 586.98,659.47 587.00,649.00
             587.00,649.00 587.00,576.00 587.00,576.00
             587.01,571.85 586.87,567.75 589.09,564.04
             591.80,559.50 607.72,549.60 613.00,545.40
             635.80,527.26 651.56,511.81 668.57,488.00
             677.49,475.52 684.49,462.72 691.24,449.00
             694.93,441.49 697.28,430.39 706.00,427.65
             708.41,426.89 711.47,427.00 714.00,427.00
             714.00,427.00 763.00,427.00 763.00,427.00
             773.39,426.85 773.99,422.09 774.00,413.00
             774.00,413.00 774.00,307.00 774.00,307.00
             774.00,307.00 773.43,281.00 773.43,281.00
             772.79,278.81 771.78,277.16 769.87,275.85
             766.82,273.77 762.54,274.01 759.00,274.00
             759.00,274.00 712.00,274.00 712.00,274.00
             709.06,274.00 705.69,274.21 703.02,272.83
             696.99,269.72 691.92,253.52 688.52,247.00
             674.83,220.83 658.19,197.69 637.00,177.01
             629.64,169.83 614.40,156.97 606.00,151.03
             599.88,146.71 587.87,140.08 585.65,133.00
             584.89,130.59 585.00,127.53 585.00,125.00
             585.00,125.00 585.00,68.00 585.00,68.00
             585.00,64.71 586.83,50.08 580.94,52.15
             577.58,53.34 568.82,62.18 566.00,65.00
             566.00,65.00 537.00,94.00 537.00,94.00
             533.57,97.44 527.27,105.41 523.00,106.57
             517.89,107.95 502.94,103.01 497.00,101.65
             481.34,98.06 461.99,94.73 446.00,93.98
             438.87,93.62 435.53,91.86 428.00,93.98
             429.84,100.25 434.38,105.46 437.81,111.00
             443.66,120.44 449.06,129.89 453.69,140.00
             468.60,172.56 475.41,208.31 475.00,244.00
             475.00,244.00 472.13,272.00 472.13,272.00
             460.77,352.88 406.48,422.22 332.00,455.14
             306.41,466.45 278.76,472.19 251.00,474.09
             251.00,474.09 240.00,475.00 240.00,475.00
             240.00,475.00 236.00,475.00 236.00,475.00
             225.80,474.88 201.86,472.38 192.00,470.11
             192.00,470.11 160.00,463.00 160.00,463.00
             161.43,470.54 167.43,477.57 171.59,484.00 Z
           M 209.00,61.14
           C 209.00,61.14 213.00,61.14 213.00,61.14
             216.34,61.01 220.00,60.73 222.89,62.74
             227.85,66.19 228.45,74.43 223.77,78.35
             219.43,82.00 213.24,80.73 208.00,81.09
             201.19,81.56 187.71,84.27 181.00,86.15
             156.70,92.98 136.34,106.88 119.04,125.00
             103.20,141.59 92.42,163.84 87.13,186.00
             87.13,186.00 84.04,206.00 84.04,206.00
             83.81,211.31 84.93,217.49 80.61,221.57
             76.17,225.75 68.01,224.28 65.17,218.96
             63.79,216.37 64.00,212.87 64.00,210.00
             64.00,210.00 64.00,204.00 64.00,204.00
             64.07,198.57 65.57,189.49 66.61,184.00
             75.03,139.35 104.81,99.46 145.00,78.32
             163.50,68.59 180.58,64.51 201.00,61.14
             201.00,61.14 209.00,61.14 209.00,61.14 Z
           M 253.15,136.27
           C 255.63,138.12 263.41,139.23 267.00,140.35
             275.31,142.94 290.75,149.30 296.89,155.21
             304.79,162.81 300.84,175.02 289.00,173.89
             285.40,173.54 283.96,172.34 281.00,170.52
             273.92,166.18 266.94,162.23 259.00,159.64
             256.47,158.85 252.85,157.46 250.60,159.64
             248.68,161.45 249.00,165.53 249.00,168.00
             249.00,168.00 249.00,212.00 249.00,212.00
             249.01,214.95 248.71,218.30 250.60,220.78
             252.94,223.85 257.49,224.66 261.00,225.72
             261.00,225.72 278.00,231.89 278.00,231.89
             295.99,240.34 307.52,253.51 307.99,274.00
             308.43,293.68 298.52,310.61 281.00,319.74
             274.55,323.10 269.07,324.80 262.00,326.34
             258.48,327.10 254.01,327.24 251.60,330.28
             249.71,332.65 250.01,336.13 250.00,339.00
             249.99,342.42 250.41,347.99 248.83,350.96
             245.63,356.95 237.63,357.49 233.74,351.89
             231.20,348.24 232.08,340.47 232.00,336.00
             231.79,324.91 225.51,327.52 215.00,324.57
             201.56,320.80 189.55,315.64 178.00,307.65
             172.94,304.15 167.35,299.89 168.23,293.00
             169.20,285.37 177.39,282.02 184.00,285.16
             186.23,286.22 190.67,289.90 193.00,291.57
             201.43,297.61 210.12,302.11 220.00,305.33
             222.87,306.17 227.92,307.83 230.40,305.33
             232.32,303.51 232.00,299.51 232.00,297.00
             232.00,297.00 232.00,251.00 232.00,251.00
             231.99,247.64 232.37,244.04 229.69,241.51
             227.54,239.50 217.44,236.85 214.00,235.66
             204.76,232.45 195.50,228.31 188.29,221.54
             165.75,200.38 171.53,164.42 196.00,147.44
             201.47,143.64 210.48,140.20 217.00,138.65
             217.00,138.65 227.94,136.42 227.94,136.42
             233.44,134.06 231.13,129.01 232.74,125.04
             234.05,121.82 236.01,120.92 239.00,119.74
             252.44,118.79 247.61,132.14 253.15,136.27 Z
           M 203.33,168.04
           C 193.84,178.98 194.00,196.73 205.09,206.53
             209.50,210.43 217.37,214.12 223.00,215.94
             225.08,216.57 228.48,217.46 230.40,215.94
             232.37,214.45 232.00,210.27 232.00,208.00
             232.00,208.00 232.00,166.00 232.00,166.00
             231.99,161.50 232.83,158.24 227.94,156.60
             219.17,157.01 209.12,161.35 203.33,168.04 Z
           M 249.00,254.00
           C 249.00,254.00 249.00,300.00 249.00,300.00
             249.04,305.79 249.17,308.43 256.00,307.82
             276.64,305.98 293.87,283.61 282.64,264.00
             278.92,257.51 273.57,253.89 267.00,250.78
             262.22,248.51 256.68,245.79 251.31,246.64
             248.48,248.95 249.02,250.47 249.00,254.00 Z
           M 618.97,283.00
           C 623.16,290.75 629.35,312.52 616.00,314.77
             602.85,316.99 604.93,302.85 601.53,295.00
             598.02,286.89 589.57,280.23 581.00,278.24
             568.75,275.40 555.72,283.77 550.95,295.00
             547.91,302.17 549.74,316.69 537.00,314.76
             524.49,312.87 528.36,295.93 531.46,288.00
             538.67,269.55 551.96,260.56 571.00,257.43
             590.94,254.97 609.56,265.59 618.97,283.00 Z" />
</svg>
